<svg width="385" height="593" viewBox="0 0 385 593" fill="none" xmlns="http://www.w3.org/2000/svg">
<mask id="mask0_26_56" style="mask-type:alpha" maskUnits="userSpaceOnUse" x="0" y="0" width="385" height="593">
<rect x="0.905182" width="384.052" height="593" fill="url(#paint0_linear_26_56)"/>
<rect x="0.905182" width="384.052" height="593" stroke="#19182B"/>
</mask>
<g mask="url(#mask0_26_56)">
<rect x="0.905182" width="384.052" height="593" fill="url(#paint1_linear_26_56)"/>
<rect x="0.905182" width="384.052" height="593" stroke="#19182B"/>
<g filter="url(#filter0_d_26_56)">
<path d="M-183.44 237C-183.44 222.641 -172.263 211 -158.476 211H207.333C221.12 211 232.296 222.641 232.296 237V474C232.296 488.359 221.12 500 207.333 500H-158.476C-172.263 500 -183.44 488.359 -183.44 474V237Z" fill="#242742"/>
</g>
<g filter="url(#filter1_d_26_56)">
<path d="M-168.078 237C-168.078 230.925 -163.349 226 -157.516 226H206.373C212.206 226 216.934 230.925 216.934 237V474C216.934 480.075 212.206 485 206.373 485H-157.516C-163.349 485 -168.078 480.075 -168.078 474V237Z" fill="url(#paint2_linear_26_56)"/>
</g>
<mask id="mask1_26_56" style="mask-type:alpha" maskUnits="userSpaceOnUse" x="-169" y="226" width="386" height="259">
<path d="M-168.078 237C-168.078 230.925 -163.349 226 -157.516 226H206.373C212.206 226 216.934 230.925 216.934 237V474C216.934 480.075 212.206 485 206.373 485H-157.516C-163.349 485 -168.078 480.075 -168.078 474V237Z" fill="url(#paint3_linear_26_56)"/>
</mask>
<g mask="url(#mask1_26_56)">
<ellipse cx="206.373" cy="470" rx="151.7" ry="158" fill="url(#paint4_linear_26_56)"/>
<circle cx="154.882" cy="154.882" r="154.882" transform="matrix(-0.69258 -0.721341 0.69258 -0.721341 -37.072 414.891)" fill="url(#paint5_linear_26_56)"/>
</g>
<g filter="url(#filter2_d_26_56)">
<path d="M124.762 126C124.762 119.925 129.49 115 135.323 115H529.936C535.769 115 540.498 119.925 540.498 126V355C540.498 361.075 535.769 366 529.936 366H135.323C129.49 366 124.762 361.075 124.762 355V126Z" fill="url(#paint6_linear_26_56)"/>
</g>
<path d="M124.762 126C124.762 119.925 129.49 115 135.323 115H216.934V366H135.323C129.49 366 124.762 361.075 124.762 355V126Z" fill="url(#paint7_linear_26_56)"/>
<path d="M138.204 165.5C138.204 163.567 139.708 162 141.564 162H200.132C201.988 162 203.492 163.567 203.492 165.5C203.492 167.433 201.988 169 200.132 169H141.564C139.708 169 138.204 167.433 138.204 165.5Z" fill="#BABBDB"/>
<path d="M138.204 185.5C138.204 183.567 139.708 182 141.564 182H193.411C195.267 182 196.772 183.567 196.772 185.5C196.772 187.433 195.267 189 193.411 189H141.564C139.708 189 138.204 187.433 138.204 185.5Z" fill="#BABBDB"/>
<path d="M138.204 205.5C138.204 203.567 139.708 202 141.564 202H200.132C201.988 202 203.492 203.567 203.492 205.5C203.492 207.433 201.988 209 200.132 209H141.564C139.708 209 138.204 207.433 138.204 205.5Z" fill="#BABBDB"/>
<path d="M138.204 225.5C138.204 223.567 139.708 222 141.564 222H179.009C180.865 222 182.37 223.567 182.37 225.5C182.37 227.433 180.865 229 179.009 229H141.564C139.708 229 138.204 227.433 138.204 225.5Z" fill="#BABBDB"/>
<path d="M124.762 126C124.762 119.925 129.49 115 135.323 115H529.936C535.769 115 540.498 119.925 540.498 126V146H124.762V126Z" fill="#242742"/>
<ellipse cx="146.365" cy="130.5" rx="6.24084" ry="6.5" fill="#FF6464"/>
<ellipse cx="167.488" cy="130.5" rx="6.24084" ry="6.5" fill="#FF9255"/>
<ellipse cx="188.61" cy="130.5" rx="6.24084" ry="6.5" fill="#6BD5A8"/>
<path d="M237.097 97C237.097 94.7908 238.816 93 240.938 93H327.349C329.47 93 331.19 94.7908 331.19 97V219C331.19 221.209 329.47 223 327.349 223H240.938C238.816 223 237.097 221.209 237.097 219V97Z" fill="white"/>
<mask id="mask2_26_56" style="mask-type:alpha" maskUnits="userSpaceOnUse" x="237" y="93" width="95" height="130">
<path d="M237.097 97C237.097 94.7908 238.816 93 240.938 93H327.349C329.47 93 331.19 94.7908 331.19 97V219C331.19 221.209 329.47 223 327.349 223H240.938C238.816 223 237.097 221.209 237.097 219V97Z" fill="white"/>
</mask>
<g mask="url(#mask2_26_56)">
<path fill-rule="evenodd" clip-rule="evenodd" d="M340.907 121.878C342.032 123.049 342.033 124.949 340.908 126.121L316.641 151.411C312.466 155.762 305.695 155.762 301.52 151.411C299.595 149.406 296.473 149.406 294.549 151.411L277.813 168.853C274.562 172.241 269.29 172.241 266.039 168.853C265.039 167.811 263.416 167.811 262.415 168.853L231.453 201.121C230.329 202.293 228.505 202.293 227.38 201.122C226.255 199.951 226.254 198.051 227.379 196.879L258.341 164.612C261.591 161.224 266.863 161.224 270.114 164.612C271.114 165.655 272.737 165.655 273.738 164.612L290.474 147.17C294.649 142.819 301.42 142.819 305.595 147.17C307.519 149.176 310.641 149.176 312.566 147.17L336.833 121.879C337.958 120.707 339.782 120.707 340.907 121.878Z" fill="url(#paint8_linear_26_56)"/>
</g>
<path d="M284.143 243C284.143 240.791 285.863 239 287.984 239H403.199C405.32 239 407.04 240.791 407.04 243V387C407.04 389.209 405.32 391 403.199 391H287.984C285.863 391 284.143 389.209 284.143 387V243Z" fill="white"/>
<path fill-rule="evenodd" clip-rule="evenodd" d="M346.072 347C363.305 347 377.276 332.449 377.276 314.5C377.276 296.551 363.305 282 346.072 282C328.838 282 314.867 296.551 314.867 314.5C314.867 332.449 328.838 347 346.072 347ZM346.072 361C370.729 361 390.718 340.181 390.718 314.5C390.718 288.819 370.729 268 346.072 268C321.414 268 301.426 288.819 301.426 314.5C301.426 340.181 321.414 361 346.072 361Z" fill="url(#paint9_linear_26_56)"/>
<path d="M329.854 309.719C329.854 311.99 330.42 313.786 331.55 315.109C332.68 316.422 334.22 317.078 336.17 317.078C337.981 317.078 339.396 316.406 340.416 315.062C341.446 313.719 341.961 312.042 341.961 310.031H340.836C340.836 311.177 340.531 312.089 339.921 312.766C339.311 313.443 338.551 313.781 337.641 313.781C336.67 313.781 335.95 313.443 335.48 312.766C335.01 312.078 334.775 311.073 334.775 309.75C334.775 308.24 335.01 307.156 335.48 306.5C335.96 305.833 336.67 305.5 337.611 305.5C338.621 305.5 339.406 305.932 339.966 306.797C340.526 307.661 340.806 309.208 340.806 311.438L340.941 312.062C340.941 315.365 340.246 317.708 338.856 319.094C337.465 320.479 335.5 321.167 332.96 321.156H332.285V325.125H333.065C337.145 325.083 340.261 323.932 342.411 321.672C344.571 319.401 345.652 316.344 345.652 312.5V311.688C345.652 308.229 344.906 305.729 343.416 304.188C341.926 302.635 340.001 301.859 337.641 301.859C335.27 301.859 333.38 302.573 331.97 304C330.56 305.427 329.854 307.333 329.854 309.719Z" fill="#242742"/>
<path d="M356.078 325H360.714V302.25H356.378L346.672 316.812V320.25H363.129V316.359H358.388L357.608 316.438H351.367L356.003 308.875H356.153V318.469L356.078 319.016V325Z" fill="#242742"/>
</g>
<defs>
<filter id="filter0_d_26_56" x="-215.44" y="203" width="479.736" height="353" filterUnits="userSpaceOnUse" color-interpolation-filters="sRGB">
<feFlood flood-opacity="0" result="BackgroundImageFix"/>
<feColorMatrix in="SourceAlpha" type="matrix" values="0 0 0 0 0 0 0 0 0 0 0 0 0 0 0 0 0 0 127 0" result="hardAlpha"/>
<feOffset dy="24"/>
<feGaussianBlur stdDeviation="16"/>
<feComposite in2="hardAlpha" operator="out"/>
<feColorMatrix type="matrix" values="0 0 0 0 0 0 0 0 0 0 0 0 0 0 0 0 0 0 0.1 0"/>
<feBlend mode="normal" in2="BackgroundImageFix" result="effect1_dropShadow_26_56"/>
<feBlend mode="normal" in="SourceGraphic" in2="effect1_dropShadow_26_56" result="shape"/>
</filter>
<filter id="filter1_d_26_56" x="-200.078" y="218" width="449.012" height="323" filterUnits="userSpaceOnUse" color-interpolation-filters="sRGB">
<feFlood flood-opacity="0" result="BackgroundImageFix"/>
<feColorMatrix in="SourceAlpha" type="matrix" values="0 0 0 0 0 0 0 0 0 0 0 0 0 0 0 0 0 0 127 0" result="hardAlpha"/>
<feOffset dy="24"/>
<feGaussianBlur stdDeviation="16"/>
<feComposite in2="hardAlpha" operator="out"/>
<feColorMatrix type="matrix" values="0 0 0 0 0 0 0 0 0 0 0 0 0 0 0 0 0 0 0.1 0"/>
<feBlend mode="normal" in2="BackgroundImageFix" result="effect1_dropShadow_26_56"/>
<feBlend mode="normal" in="SourceGraphic" in2="effect1_dropShadow_26_56" result="shape"/>
</filter>
<filter id="filter2_d_26_56" x="92.7619" y="107" width="479.736" height="315" filterUnits="userSpaceOnUse" color-interpolation-filters="sRGB">
<feFlood flood-opacity="0" result="BackgroundImageFix"/>
<feColorMatrix in="SourceAlpha" type="matrix" values="0 0 0 0 0 0 0 0 0 0 0 0 0 0 0 0 0 0 127 0" result="hardAlpha"/>
<feOffset dy="24"/>
<feGaussianBlur stdDeviation="16"/>
<feComposite in2="hardAlpha" operator="out"/>
<feColorMatrix type="matrix" values="0 0 0 0 0 0 0 0 0 0 0 0 0 0 0 0 0 0 0.1 0"/>
<feBlend mode="normal" in2="BackgroundImageFix" result="effect1_dropShadow_26_56"/>
<feBlend mode="normal" in="SourceGraphic" in2="effect1_dropShadow_26_56" result="shape"/>
</filter>
<linearGradient id="paint0_linear_26_56" x1="384.957" y1="-3.21644e-05" x2="-20.8941" y2="577.685" gradientUnits="userSpaceOnUse">
<stop stop-color="#FF6A3A"/>
<stop offset="1" stop-color="#FF527B"/>
</linearGradient>
<linearGradient id="paint1_linear_26_56" x1="384.957" y1="-3.21644e-05" x2="-20.8941" y2="577.685" gradientUnits="userSpaceOnUse">
<stop stop-color="#FF6A3A"/>
<stop offset="1" stop-color="#FF527B"/>
</linearGradient>
<linearGradient id="paint2_linear_26_56" x1="-82.146" y1="222" x2="223.651" y2="472.708" gradientUnits="userSpaceOnUse">
<stop stop-color="#FF3E83"/>
<stop offset="1" stop-color="#FF9F2E"/>
</linearGradient>
<linearGradient id="paint3_linear_26_56" x1="-82.146" y1="222" x2="223.651" y2="472.708" gradientUnits="userSpaceOnUse">
<stop stop-color="#FF3E83"/>
<stop offset="1" stop-color="#FF9F2E"/>
</linearGradient>
<linearGradient id="paint4_linear_26_56" x1="206.373" y1="312" x2="206.373" y2="628" gradientUnits="userSpaceOnUse">
<stop stop-color="#FFB443"/>
<stop offset="1" stop-color="#FF5B64" stop-opacity="0"/>
</linearGradient>
<linearGradient id="paint5_linear_26_56" x1="154.882" y1="0" x2="154.882" y2="309.764" gradientUnits="userSpaceOnUse">
<stop stop-color="#FFB443"/>
<stop offset="1" stop-color="#FF5B64" stop-opacity="0"/>
</linearGradient>
<linearGradient id="paint6_linear_26_56" x1="332.63" y1="115" x2="332.63" y2="366" gradientUnits="userSpaceOnUse">
<stop stop-color="#F8F8F8"/>
<stop offset="1" stop-color="#EEEEEE"/>
</linearGradient>
<linearGradient id="paint7_linear_26_56" x1="170.848" y1="115" x2="170.848" y2="366" gradientUnits="userSpaceOnUse">
<stop stop-color="#CACBE8"/>
<stop offset="1" stop-color="#EEEEEE"/>
<stop offset="1" stop-color="#CACBE8"/>
</linearGradient>
<linearGradient id="paint8_linear_26_56" x1="339.205" y1="120.512" x2="232.453" y2="196.18" gradientUnits="userSpaceOnUse">
<stop stop-color="#FF9049"/>
<stop offset="1" stop-color="#FF5E5E"/>
</linearGradient>
<linearGradient id="paint9_linear_26_56" x1="346.072" y1="268" x2="346.072" y2="361" gradientUnits="userSpaceOnUse">
<stop stop-color="#FF6A3D"/>
<stop offset="1" stop-color="#FF5B66"/>
</linearGradient>
</defs>
</svg>
